<svg aria-hidden="true" style="position:absolute;width:0;height:0;overflow:hidden" xmlns="http://www.w3.org/2000/svg">
  <defs>
    <symbol id="logo-white" viewBox="0 0 85 32">
      <path fill="#fff" style="fill:var(--color1, #fff)" d="M11.933 4.686v12.543H8.385v-4.892H3.547v4.892H-.001V4.686h3.548v4.712h4.838V4.686h3.548zM24.918 12.391c0 .024-.018.305-.054.842h-7.06c.143.502.418.89.824 1.165.418.263.938.394 1.559.394.466 0 .866-.066 1.2-.197a3.51 3.51 0 0 0 1.039-.645l1.792 1.863c-.944 1.051-2.323 1.577-4.139 1.577-1.135 0-2.132-.215-2.992-.645s-1.529-1.027-2.007-1.792c-.466-.764-.699-1.63-.699-2.598 0-.956.227-1.81.681-2.562.466-.764 1.105-1.362 1.917-1.792s1.726-.645 2.741-.645c.968 0 1.846.203 2.634.609a4.43 4.43 0 0 1 1.863 1.738c.466.753.699 1.648.699 2.688zm-5.179-2.616c-.526 0-.968.149-1.326.448-.346.299-.567.705-.663 1.218h3.978c-.096-.514-.323-.92-.681-1.218-.346-.299-.782-.448-1.308-.448zM27.204 3.934h3.404v13.295h-3.404V3.934zM33.538 3.934h3.404v13.295h-3.404V3.934z"/>
      <path fill="#ff6b09" style="fill:var(--color2, #ff6b09)" d="M3.867 26.282v3.733h-.864v-1.531H1.307v1.531H.443v-3.733h.864v1.472h1.696v-1.472h.864zm4.734 3.04v.693H5.71v-3.733h2.821v.693H6.568v.811h1.733v.672H6.568v.864H8.6zm1.647-3.04h.864v3.029h1.872v.704h-2.736v-3.733zm4.179 0h.864v3.029h1.872v.704h-2.736v-3.733zm4.179 0h.864v3.733h-.864v-3.733zm3.936 3.798c-.295 0-.581-.039-.859-.117a2.045 2.045 0 0 1-.661-.315l.293-.651c.16.117.35.212.571.283s.441.107.661.107c.245 0 .427-.036.544-.107.117-.075.176-.172.176-.293a.269.269 0 0 0-.107-.219.743.743 0 0 0-.267-.144 4.67 4.67 0 0 0-.437-.117c-.284-.068-.517-.135-.699-.203s-.338-.176-.469-.325c-.128-.149-.192-.348-.192-.597 0-.217.059-.412.176-.587.117-.178.293-.318.528-.421.238-.103.528-.155.869-.155.238 0 .471.028.699.085s.427.139.597.245l-.267.656a2.078 2.078 0 0 0-1.035-.293c-.242 0-.421.039-.539.117-.114.078-.171.181-.171.309s.066.224.197.288c.135.06.34.121.613.181.284.068.517.135.699.203s.336.174.464.32c.132.146.197.343.197.592 0 .213-.06.409-.181.587-.117.174-.295.313-.533.416s-.528.155-.869.155zm6.559-3.798v3.733h-.864v-1.531h-1.696v1.531h-.864v-3.733h.864v1.472h1.696v-1.472h.864z"/>
      <path fill="#fff" style="fill:var(--color1, #fff)" d="M36.305 29.322v.693h-2.891v-3.733h2.821v.693h-1.963v.811h1.733v.672h-1.733v.864h2.032zm5.071-3.04v3.733h-.709l-1.861-2.267v2.267h-.853v-3.733h.715l1.856 2.267v-2.267h.853zm4.366 1.808h.789v1.515c-.203.153-.437.27-.704.352s-.535.123-.805.123c-.388 0-.736-.082-1.045-.245a1.892 1.892 0 0 1-.731-.688c-.174-.295-.261-.628-.261-.997s.087-.7.261-.992c.178-.295.423-.524.736-.688a2.208 2.208 0 0 1 1.056-.251c.327 0 .624.055.891.165s.491.27.672.48l-.555.512a1.282 1.282 0 0 0-.965-.421c-.238 0-.45.05-.635.149s-.329.24-.432.421-.155.389-.155.624c0 .231.052.437.155.619s.245.324.427.427c.185.1.395.149.629.149.249 0 .473-.053.672-.16v-1.093zm2.552-1.808h.864v3.029h1.872v.704h-2.736v-3.733zm4.179 0h.864v3.733h-.864v-3.733zm3.937 3.798c-.295 0-.581-.039-.859-.117a2.045 2.045 0 0 1-.661-.315l.293-.651c.16.117.35.212.571.283s.441.107.661.107c.245 0 .427-.036.544-.107.117-.075.176-.172.176-.293a.269.269 0 0 0-.107-.219.743.743 0 0 0-.267-.144 4.67 4.67 0 0 0-.437-.117c-.284-.068-.517-.135-.699-.203s-.338-.176-.469-.325c-.128-.149-.192-.348-.192-.597 0-.217.059-.412.176-.587.117-.178.293-.318.528-.421.238-.103.528-.155.869-.155.238 0 .471.028.699.085s.427.139.597.245l-.267.656a2.078 2.078 0 0 0-1.035-.293c-.242 0-.421.039-.539.117-.114.078-.171.181-.171.309s.066.224.197.288c.135.06.34.121.613.181.284.068.517.135.699.203s.336.174.464.32c.132.146.197.343.197.592 0 .213-.06.409-.181.587-.117.174-.295.313-.533.416s-.528.155-.869.155zm6.558-3.798v3.733h-.864v-1.531h-1.696v1.531h-.864v-3.733h.864v1.472h1.696v-1.472h.864zM70.715 14.487v2.741h-10.07V4.686h9.837v2.741h-6.325v2.114h5.572v2.652h-5.572v2.293h6.558zM85.333 4.686v12.542h-2.921l-5.537-6.683v6.683h-3.476V4.686h2.921l5.537 6.683V4.686h3.476z"/>
      <path fill="#ff6b09" style="fill:var(--color2, #ff6b09)" d="M55.628 10.72c-.183-.41-.436-.814-.805-1.281-.932-1.172-1.216-3.784-1.219-3.809a.315.315 0 0 0-.218-.266.32.32 0 0 0-.335.091c-1.112 1.244-.644 3.164-.392 3.931.069.21.145.457.199.708.411 2.027-.382 2.945-.569 3.129-.18.05-.303.025-.417-.097-.392-.429-.521-1.836-.338-3.668a3.772 3.772 0 0 0-.025-1.021c-.386-2.252-1.803-3.697-2.164-4.204-.992-1.466-1.093-3.906-1.096-3.928a.315.315 0 0 0-.493-.247c-1.655 1.125-1.513 3.834-1.282 5.347.054.351.158.708.338 1.159.641 1.613-.126 3.696-.133 3.715s-.013.034-.016.053c-.098.514-.262.821-.445.821a.224.224 0 0 1-.06-.009c-.224-.047-.341-.285-.344-.492-.013-2.672-2.694-3.571-2.723-3.58a.314.314 0 0 0-.335.094.309.309 0 0 0-.044.345c.032.066.133.354.063 1.372-.06.915-.227 1.82-.496 2.688a13.111 13.111 0 0 0-.531 4.144c.491 5.335 8.163 6.27 12.716 3.264a4.608 4.608 0 0 0 1.206-1.118c1.68-2.318.692-5.466-.044-7.139zm-11.671 5.097a.313.313 0 0 1-.297.329h-.019a.315.315 0 0 1-.316-.294c-.028-.457-.022-.937.013-1.457a.317.317 0 0 1 .632.044c-.035.495-.041.946-.013 1.378zm.155-2.776a.314.314 0 0 1-.313.276c-.013 0-.025 0-.041-.003a.316.316 0 0 1-.275-.348l.152-1.209a.32.32 0 0 1 .354-.273.315.315 0 0 1 .275.351l-.152 1.206zM53.492 4.285a.314.314 0 0 1-.264-.357c.02-.127.134-.779.444-1.106.119-.126.319-.133.447-.014s.134.316.014.443c-.131.139-.243.536-.28.773a.315.315 0 0 1-.361.261zM41.976 5.846c-.06-.233-.211-.617-.355-.743-.131-.114-.144-.312-.029-.442s.314-.144.446-.029c.34.296.518.933.55 1.058a.313.313 0 0 1-.227.381.318.318 0 0 1-.385-.225z"/>
    </symbol>
  </defs>
</svg>
