<svg aria-hidden="true" style="position:absolute;width:0;height:0;overflow:hidden" xmlns="http://www.w3.org/2000/svg">
  <defs>
    <symbol id="logo" viewBox="0 0 85 32">
      <path fill="#111518" style="fill:var(--color1, #111518)"
        d="M11.933 4.686v12.543H8.385v-4.892H3.547v4.892H-.001V4.686h3.548v4.712h4.838V4.686h3.548zM24.918 12.391c0 .024-.018.305-.054.842h-7.06c.143.502.418.89.824 1.165.418.263.938.394 1.559.394.466 0 .866-.066 1.2-.197.346-.131.693-.346 1.039-.645l1.792 1.863c-.944 1.051-2.323 1.577-4.139 1.577-1.135 0-2.132-.215-2.992-.645s-1.529-1.027-2.007-1.792c-.466-.764-.699-1.63-.699-2.598 0-.956.227-1.81.681-2.562.466-.764 1.105-1.362 1.917-1.792s1.726-.645 2.741-.645c.968 0 1.846.203 2.634.609.788.394 1.41.974 1.863 1.738.466.753.699 1.648.699 2.688zm-5.179-2.616c-.526 0-.968.149-1.326.448-.346.299-.567.705-.663 1.218h3.978c-.096-.514-.323-.92-.681-1.218-.346-.299-.782-.448-1.308-.448zM27.204 3.934h3.404v13.295h-3.404V3.934zM33.538 3.934h3.404v13.295h-3.404V3.934z" />
      <path fill="#ff6b09" style="fill:var(--color2, #ff6b09)"
        d="M3.867 26.282v3.733h-.864v-1.531H1.307v1.531H.443v-3.733h.864v1.472h1.696v-1.472h.864zm4.734 3.04v.693H5.71v-3.733h2.821v.693H6.568v.811h1.733v.672H6.568v.864H8.6zm1.647-3.04h.864v3.029h1.872v.704h-2.736v-3.733zm4.179 0h.864v3.029h1.872v.704h-2.736v-3.733zm4.179 0h.864v3.733h-.864v-3.733zm3.936 3.798c-.295 0-.581-.039-.859-.117-.274-.082-.494-.187-.661-.315l.293-.651c.16.117.35.212.571.283s.441.107.661.107c.245 0 .427-.036.544-.107.117-.075.176-.172.176-.293 0-.089-.036-.162-.107-.219-.068-.06-.156-.108-.267-.144-.107-.036-.252-.075-.437-.117-.284-.068-.517-.135-.699-.203s-.338-.176-.469-.325c-.128-.149-.192-.348-.192-.597 0-.217.059-.412.176-.587.117-.178.293-.318.528-.421.238-.103.528-.155.869-.155.238 0 .471.028.699.085s.427.139.597.245l-.267.656c-.345-.196-.69-.293-1.035-.293-.242 0-.421.039-.539.117-.114.078-.171.181-.171.309s.066.224.197.288c.135.06.34.121.613.181.284.068.517.135.699.203s.336.174.464.32c.132.146.197.343.197.592 0 .213-.06.409-.181.587-.117.174-.295.313-.533.416s-.528.155-.869.155zm6.559-3.798v3.733h-.864v-1.531h-1.696v1.531h-.864v-3.733h.864v1.472h1.696v-1.472h.864z" />
      <path fill="#111518" style="fill:var(--color1, #111518)"
        d="M36.305 29.322v.693h-2.891v-3.733h2.821v.693h-1.963v.811h1.733v.672h-1.733v.864h2.032zm5.071-3.04v3.733h-.709l-1.861-2.267v2.267h-.853v-3.733h.715l1.856 2.267v-2.267h.853zm4.366 1.808h.789v1.515c-.203.153-.437.27-.704.352s-.535.123-.805.123c-.388 0-.736-.082-1.045-.245-.309-.167-.553-.396-.731-.688-.174-.295-.261-.628-.261-.997s.087-.7.261-.992c.178-.295.423-.524.736-.688.313-.167.665-.251 1.056-.251.327 0 .624.055.891.165s.491.27.672.48l-.555.512c-.267-.281-.588-.421-.965-.421-.238 0-.45.05-.635.149s-.329.24-.432.421-.155.389-.155.624c0 .231.052.437.155.619s.245.324.427.427c.185.1.395.149.629.149.249 0 .473-.053.672-.16v-1.093zm2.552-1.808h.864v3.029h1.872v.704h-2.736v-3.733zm4.179 0h.864v3.733h-.864v-3.733zm3.937 3.798c-.295 0-.581-.039-.859-.117-.274-.082-.494-.187-.661-.315l.293-.651c.16.117.35.212.571.283s.441.107.661.107c.245 0 .427-.036.544-.107.117-.075.176-.172.176-.293 0-.089-.036-.162-.107-.219-.068-.06-.156-.108-.267-.144-.107-.036-.252-.075-.437-.117-.284-.068-.517-.135-.699-.203s-.338-.176-.469-.325c-.128-.149-.192-.348-.192-.597 0-.217.059-.412.176-.587.117-.178.293-.318.528-.421.238-.103.528-.155.869-.155.238 0 .471.028.699.085s.427.139.597.245l-.267.656c-.345-.196-.69-.293-1.035-.293-.242 0-.421.039-.539.117-.114.078-.171.181-.171.309s.066.224.197.288c.135.06.34.121.613.181.284.068.517.135.699.203s.336.174.464.32c.132.146.197.343.197.592 0 .213-.06.409-.181.587-.117.174-.295.313-.533.416s-.528.155-.869.155zm6.558-3.798v3.733h-.864v-1.531h-1.696v1.531h-.864v-3.733h.864v1.472h1.696v-1.472h.864zM70.715 14.487v2.741h-10.07V4.686h9.837v2.741h-6.325v2.114h5.572v2.652h-5.572v2.293h6.558zM85.333 4.686v12.542h-2.921l-5.537-6.683v6.683h-3.476V4.686h2.921l5.537 6.683V4.686h3.476z" />
      <path fill="#ff6b09" style="fill:var(--color2, #ff6b09)"
        d="M55.628 10.72c-.183-.41-.436-.814-.805-1.281-.932-1.172-1.216-3.784-1.219-3.809-.013-.125-.101-.229-.218-.266-.12-.038-.25-.003-.335.091-1.112 1.244-.644 3.164-.392 3.931.069.21.145.457.199.708.411 2.027-.382 2.945-.569 3.129-.18.05-.303.025-.417-.097-.392-.429-.521-1.836-.338-3.668.038-.373.028-.708-.025-1.021-.386-2.252-1.803-3.697-2.164-4.204-.992-1.466-1.093-3.906-1.096-3.928-.003-.116-.07-.219-.174-.269-.101-.05-.224-.044-.319.022-1.655 1.125-1.513 3.834-1.282 5.347.054.351.158.708.338 1.159.641 1.613-.126 3.696-.133 3.715s-.013.034-.016.053c-.098.514-.262.821-.445.821-.019 0-.038-.003-.06-.009-.224-.047-.341-.285-.344-.492-.013-2.672-2.694-3.571-2.723-3.58-.12-.038-.253-.003-.335.094-.085.097-.101.232-.044.345.032.066.133.354.063 1.372-.06.915-.227 1.82-.496 2.688-.638 2.08-.537 4.05-.531 4.144.491 5.335 8.163 6.27 12.716 3.264.499-.329.906-.705 1.206-1.118 1.68-2.318.692-5.466-.044-7.139zm-11.671 5.097c.009.172-.123.32-.297.329h-.019c-.167 0-.306-.128-.316-.294-.028-.457-.022-.937.013-1.457.013-.172.164-.301.338-.291.174.013.306.163.294.335-.035.495-.041.946-.013 1.378zm.155-2.776c-.019.16-.155.276-.313.276-.013 0-.025 0-.041-.003-.171-.022-.294-.175-.275-.348l.152-1.209c.022-.169.177-.291.354-.273.174.022.297.179.275.351l-.152 1.206zM53.492 4.285c-.172-.026-.29-.186-.264-.357.02-.127.134-.779.444-1.106.119-.126.319-.133.447-.014s.134.316.014.443c-.131.139-.243.536-.28.773-.027.169-.186.288-.361.261zM41.976 5.846c-.06-.233-.211-.617-.355-.743-.131-.114-.144-.312-.029-.442s.314-.144.446-.029c.34.296.518.933.55 1.058.043.168-.059.338-.227.381-.172.043-.342-.061-.385-.225z" />
    </symbol>
    <symbol id="fire" viewBox="0 0 24 32">
      <path fill="#ff6b09" style="fill:var(--color2, #ff6b09)"
        d="M21.909 16.593c-.284-.635-.675-1.261-1.247-1.983-1.442-1.813-1.882-5.857-1.887-5.896-.02-.194-.156-.354-.337-.412-.186-.058-.386-.005-.518.141-1.721 1.925-.997 4.897-.606 6.085.108.325.225.708.308 1.096.636 3.137-.592 4.557-.88 4.844-.279.078-.469.039-.645-.15-.606-.664-.807-2.841-.523-5.678.059-.577.044-1.096-.039-1.581-.598-3.486-2.791-5.722-3.349-6.507C10.651 4.283 10.494.506 10.49.472c-.005-.179-.108-.339-.269-.417-.156-.078-.347-.068-.494.034C7.165 1.83 7.385 6.024 7.742 8.365c.083.543.244 1.096.523 1.794.992 2.497-.196 5.721-.205 5.75s-.02.053-.024.082c-.152.795-.406 1.27-.689 1.27-.029 0-.059-.005-.093-.015-.347-.073-.528-.441-.533-.761-.02-4.136-4.17-5.527-4.214-5.542-.186-.058-.391-.005-.518.145-.132.15-.156.359-.068.533.049.102.205.548.098 2.124-.093 1.416-.352 2.817-.768 4.16C.263 21.125.42 24.174.43 24.32c.759 8.257 12.635 9.704 19.683 5.052.772-.509 1.403-1.091 1.868-1.731 2.601-3.588 1.071-8.461-.068-11.05zM3.845 24.481c.015.267-.191.495-.46.509h-.029c-.259 0-.474-.199-.489-.456-.044-.708-.034-1.45.02-2.255.02-.267.254-.465.523-.451.269.019.474.252.455.519-.054.766-.064 1.464-.02 2.133zm.239-4.295c-.029.247-.24.427-.484.427-.02 0-.039 0-.064-.005-.264-.034-.455-.272-.425-.538l.235-1.872c.034-.262.274-.451.548-.422.269.034.46.276.425.543l-.235 1.867z" />
    </symbol>
    <symbol id="burgermenu" viewBox="0 0 48 32">
      <path stroke-width="4.5714" d="M0 2.286h46.857M0 16h46.857M0 29.714h46.857" />
    </symbol>
    <symbol id="wedo" viewBox="0 0 31 32">
      <path
        d="M30.151 4.961c0-.001-.001-.001-.001-.002-.007-.016-.015-.031-.024-.045-.001-.001-.002-.002-.002-.003-.01-.015-.021-.029-.034-.042L25.284.063C25.271.05 25.258.04 25.243.03l-.009-.006c-.012-.007-.024-.014-.036-.019-.004-.002-.007-.003-.011-.005-.031-.013-.065-.019-.099-.02H3.911c-.157 0-.284.127-.284.284v29.311c0 .019.002.037.006.056.002.008.005.015.007.023l.009.03c.004.009.009.017.014.026.004.007.008.016.013.023.01.014.021.028.033.04.001.001.001.002.003.003l2.165 2.164c.111.111.29.111.402 0l1.965-1.963 1.964 1.963c.055.056.128.083.201.083s.145-.027.201-.083l1.963-1.963 1.965 1.963c.111.111.291.111.402 0l1.963-1.963 1.964 1.963c.111.111.291.111.401 0l1.965-1.963 1.963 1.963c.055.056.128.083.201.083s.145-.027.201-.083l1.963-1.963 1.965 1.963c.111.111.291.111.401 0l2.165-2.164c.004-.004.007-.009.011-.014.008-.009.017-.019.024-.029s.011-.02.016-.03c.003-.007.007-.012.009-.019.006-.013.009-.026.012-.039.001-.004.004-.009.005-.013.004-.019.006-.038.006-.058V5.071c-.001-.037-.008-.074-.023-.109zM25.367.949l3.836 3.835h-3.836V.949zm4.238 28.507-1.88 1.88-1.965-1.963c-.111-.111-.29-.111-.401 0l-1.963 1.963-1.963-1.963c-.111-.111-.291-.111-.402 0l-1.965 1.963-1.963-1.962v-.001c-.055-.055-.128-.083-.201-.083s-.145.028-.201.083l-1.963 1.963-1.965-1.963c-.111-.111-.29-.111-.402 0l-1.963 1.963-1.964-1.963c-.111-.111-.29-.111-.402 0l-1.965 1.963-1.88-1.88V.547H24.8v4.522c0 .157.127.284.284.284h4.521v24.103z" />
      <path
        d="M6.314 3.234h9.303c.157 0 .284-.127.284-.284s-.127-.284-.284-.284H6.314c-.157 0-.284.127-.284.284s.127.284.284.284zM6.314 4.991h14.919c.157 0 .284-.127.284-.284s-.127-.284-.284-.284H6.314c-.157 0-.284.127-.284.284s.127.284.284.284zM6.03 6.568v9.199c0 .157.127.284.284.284h21.172c.157 0 .284-.127.284-.284V6.568c0-.157-.127-.284-.284-.284H6.314c-.157 0-.284.127-.284.284zm6.279.284h14.893v2.445H12.309V6.852zm0 3.013h14.893v2.444H12.309V9.865zm0 3.012h14.893v2.605H12.309v-2.605zM6.598 6.852h5.142v2.445H6.598V6.852zm0 3.013h5.142v2.444H6.598V9.865zm0 3.012h5.142v2.605H6.598v-2.605zM27.486 17.329H6.314c-.157 0-.284.127-.284.284v9.198c0 .157.127.284.284.284s.284-.127.284-.284v-2.889h5.142v2.889c0 .157.127.284.284.284s.284-.127.284-.284v-2.889h14.893v2.889c0 .157.127.284.284.284s.284-.127.284-.284v-9.198c.001-.157-.126-.284-.283-.284zm-15.745 6.025H6.599v-2.443h5.142v2.443zm0-3.012H6.599v-2.444h5.142v2.444zm15.461 3.012H12.309v-2.443h14.893v2.443zm0-3.012H12.309v-2.444h14.893v2.444zM2.281-.021c-.157 0-.284.127-.284.284v29.311c0 .157.127.284.284.284s.284-.127.284-.284V.263c0-.157-.127-.284-.284-.284zM.718-.021c-.157 0-.284.127-.284.284v29.311c0 .157.127.284.284.284s.284-.127.284-.284V.263c0-.157-.127-.284-.284-.284z" />
    </symbol>
    <symbol id="wedo2" viewBox="0 0 33 32">
      <path
        d="M30.175-.128H14.429c-1.025 0-1.859.834-1.859 1.859v6.518L.872 13.159c-.132.056-.222.181-.233.324s.061.28.184.354l1.492.893v9.515c-.763.174-1.335.857-1.335 1.674v.917c0 .21.171.381.381.381h2.671c.21 0 .381-.171.381-.381v-.917c0-.816-.573-1.498-1.336-1.673v-9.06l1.18.706c-.036.272-.005-.474-.017 4.43 0 1.612 4.129 2.476 8.33 2.525v7.425c0 .384.117.74.318 1.036.334.494.9.82 1.54.82h15.746c1.024 0 1.857-.833 1.857-1.857 0 .051-.002-1.573 0-28.54 0-1.011-.836-1.859-1.856-1.859zM3.652 25.918v.536H1.743v-.536c0-.528.427-.957.952-.957.528 0 .957.43.957.957zm26.523 5.446H14.429c-.378 0-.712-.191-.909-.482-.118-.175-.187-.385-.187-.612v-2.574h17.935v2.575c0 .597-.497 1.092-1.092 1.092zm1.093-4.429H13.333v-4.086c2.051-.023 8.335-.475 8.335-2.527-.002-3.081.005-4.33-.01-4.436l3.421-2.049c.123-.074.194-.211.184-.354s-.1-.268-.233-.324l-11.698-4.91V5.067h17.935v21.868zm-18.317-9.143c-2.113 0-6.182.273-7.949 1.427.011-3.53-.122-3.3.312-3.6 1.098-.809 4.238-1.373 7.637-1.373 1.482 0 7.954.408 7.954 1.778v3.195c-1.784-1.165-5.832-1.428-7.954-1.428zm.382-16.061c0-.604.491-1.095 1.095-1.095h15.746c.604 0 1.093.498 1.093 1.095v2.574H13.332V1.731zm-.382 7.184 11.09 4.655-2.748 1.644c-1.461-1.449-6.294-1.73-8.342-1.73-2.051 0-6.884.282-8.342 1.73L1.86 13.569l11.091-4.655zM5.002 20.321c0-.617 2.73-1.767 7.949-1.767 5.222 0 7.954 1.151 7.954 1.767s-2.732 1.768-7.954 1.768c-5.219 0-7.949-1.151-7.949-1.768z" />
      <path
        d="M22.301 28.271c-.695 0-1.26.565-1.26 1.26s.565 1.26 1.26 1.26c.695 0 1.26-.566 1.26-1.26s-.565-1.26-1.26-1.26zm0 1.759c-.275 0-.498-.224-.498-.499s.224-.498.498-.498c.275 0 .498.223.498.498s-.223.499-.498.499zM23.755 2.09h-2.906v.762h2.906V2.09z" />
    </symbol>
    <symbol id="wedo3" viewBox="0 0 44 32">
      <path
        d="M19.6 4.608H5.96v1.021H19.6V4.608zM19.6 8.416H8.003v1.021H19.6V8.416zM19.6 12.224H5.96v1.021H19.6v-1.021zM19.6 16.032H8.003v1.021H19.6v-1.021zM19.6 19.84H5.96v1.021H19.6V19.84zM19.6 23.648H8.003v1.021H19.6v-1.021zM38.323 4.608h-13.64v1.021h13.64V4.608zM36.281 8.416H24.684v1.021h11.597V8.416zM38.323 12.224h-13.64v1.021h13.64v-1.021zM36.281 16.032H24.684v1.021h11.597v-1.021zM38.323 19.84h-13.64v1.021h13.64V19.84zM36.281 23.648H24.684v1.021h11.597v-1.021z" />
      <path
        d="M43.248 3.445h-1.872V.633c0-.282-.229-.511-.511-.511H25.6c-1.49 0-2.781.805-3.458 2.011C21.464.927 20.172.122 18.683.122H3.418c-.282 0-.511.229-.511.511v2.812H1.035c-.282 0-.511.229-.511.511v27.411c0 .282.229.511.511.511h42.213c.282 0 .511-.229.511-.511V3.956c0-.282-.229-.511-.511-.511zM25.601 1.144h14.754v27.35H24.512c-.702 0-1.405.296-1.859.68V4.085c0-1.63 1.305-2.942 2.948-2.942zm-21.672 0h14.754c1.597 0 2.889 1.243 2.942 2.829.001.022.003.091.006.112v25.087c-.453-.382-1.148-.678-1.852-.678H3.929V1.144zM1.546 4.467h1.362v24.538c0 .282.229.511.511.511H19.78c.778 0 1.531.511 1.771 1.341H1.546V4.467zm41.192 26.389H22.734c.242-.834.987-1.341 1.778-1.341h16.354c.282 0 .511-.229.511-.511V4.466h1.362v26.39z" />
    </symbol>
    <symbol id="wedo4" viewBox="0 0 33 32">
      <path
        d="M1.994 12.558v2.831c0 .152.07.295.189.39 1.935 1.523 4.363 2.362 6.837 2.362.74 0 1.482-.077 2.206-.224 1.544.683 3.188 1.032 4.89 1.032 1.707 0 3.351-.349 4.89-1.032 3.091.624 6.384-.046 9.042-2.138.12-.094.189-.238.189-.39v-2.831c0-.416-.206-.794-.575-1.027l-3.867-2.176c.846-1.073 1.476-2.602 1.586-3.913.321-2.256-1.518-4.646-4.165-4.646-1.113 0-2.171.458-2.948 1.227-.027.027-.058.049-.084.076-.024.025-.043.054-.067.08-.016.017-.029.036-.044.053C19.316.852 17.862 0 16.149 0c-.166 0-.33.011-.492.028-.01-.001-.018-.006-.028-.006-.092 0-.287.024-.391.054-.015.004-.026.015-.041.021-1.279.259-2.363 1.034-3.013 2.156-.781-.911-1.93-1.457-3.179-1.457-3.908 0-5.642 4.612-2.557 8.581l-3.903 2.167c-.346.219-.553.598-.553 1.014zm19.003 4.27c-.084.041-.167.085-.251.123-.001 0-.001.001-.002.001-1.452.667-3.009 1.006-4.627 1.006-1.613 0-3.17-.338-4.629-1.007-.71-.323-1.397-.734-2.045-1.221v-2.87c0-.098.047-.184.102-.221l4.542-2.524c.565.48 1.287.832 2.035.832.721 0 1.499-.357 2.052-.843l4.487 2.52c.083.053.13.139.13.237v2.87c-.571.429-1.173.795-1.794 1.098zm8.157-4.446c.059.037.092.101.092.176v2.587c-1.969 1.477-4.337 2.148-6.737 1.98.369-.23.771-.516 1.083-.76.12-.094.19-.238.19-.39v-3.114c0-.435-.218-.835-.61-1.087l-2.383-1.339.58-.321c.703.573 1.307.744 1.848.744.662 0 1.36-.325 1.878-.759l4.06 2.284zM23.217 1.788c1.38 0 2.593.902 3.021 2.142-.833-.099-1.647-.51-2.237-1.142-.107-.114-.258-.173-.415-.155-.155.016-.293.105-.373.239-.566.948-1.493 1.58-2.548 1.76v-.003c.005-.216-.008-.434-.033-.653-.003-.022-.005-.044-.007-.067-.032-.248-.107-.559-.122-.609.563-.902 1.609-1.513 2.713-1.513zm-2.661 3.856c1.253-.137 2.386-.767 3.164-1.762.767.629 1.74 1.01 2.702 1.056-.007 1.792-1.471 4.927-3.206 4.927-1.337 0-2.479-1.912-2.905-3.238.108-.341.187-.669.245-.983zm.101 3.729-.886.491-.895-.502c.332-.413.636-.893.896-1.413.25.526.55 1.01.884 1.425zM19.32 6.465c-.478 1.427-1.705 3.49-3.199 3.49-1.742 0-3.226-2.864-3.509-4.696.075-.019 2.43.126 4.05-2.001.822.688 1.932 1.143 3.011 1.188.013.647-.144 1.406-.352 2.018zM16.15.992c2.78 0 3.309 2.392 3.352 2.442-1.008-.102-1.928-.596-2.563-1.276-.107-.114-.262-.171-.416-.154-.155.017-.293.106-.373.241-.551.932-1.414 1.589-2.414 1.868-.386.108-.803.157-1.166.154.136-1.822 1.596-3.274 3.58-3.274zm-3.689 6.946c.257.515.563 1.006.913 1.438l-.875.487-.907-.51c.344-.438.636-.929.87-1.415zm-3.455-6.15c1.125 0 2.155.571 2.729 1.514-.029.1-.106.498-.117.548-.69-.165-1.324-.533-1.821-1.062-.107-.114-.258-.17-.416-.154-.155.017-.293.106-.372.24-.663 1.119-1.881 1.815-3.177 1.815.158-1.627 1.518-2.9 3.174-2.9zm-3.13 3.89c1.425-.014 2.77-.686 3.642-1.796.596.491 1.304.813 2.056.961.029.575.179 1.273.35 1.789-.274.84-.799 1.841-1.451 2.505-.004.004-.01.006-.014.01-.408.43-.988.719-1.444.719-1.594 0-2.841-2.508-3.14-4.188zm-2.891 6.88c0-.075.033-.139.067-.162l4.116-2.284c.247.206.304.229.353.265.484.322.928.482 1.534.482.645 0 1.232-.273 1.749-.694.029-.023.06-.045.088-.068l.587.33-2.446 1.361c-.366.236-.584.636-.584 1.071v3.114c0 .152.07.296.19.39.317.249.727.539 1.083.761-2.434.166-4.803-.528-6.737-1.98v-2.587z" />
      <path
        d="M31.259 20.781c-.61-.383-1.361-.423-2.007-.11l-6.119 2.956c-.021-1.145-.956-2.071-2.107-2.071l-3.509.001c-1.73-1.504-3.941-2.425-5.952-2.473-1.983-.047-3.763-.06-4.593-.064v-1.002H0v11.517h6.972v-1.379c1.912 1.097 6.939 3.845 9.325 3.845.054 0 .107-.001.158-.004 4.196-.235 14.091-7.198 14.743-7.661.638-.37 1.034-1.056 1.034-1.796 0-.719-.364-1.376-.973-1.758zM5.98 28.542H.992v-9.533H5.98v9.533zm24.707-5.058c-.015.008-.03.017-.044.028-.102.073-10.281 7.271-14.244 7.494-.039.002-.079.003-.121.003-2.092 0-7.194-2.753-9.307-4.001v-6.997c.827.004 2.597.017 4.569.064 1.837.044 3.876.921 5.456 2.346l.141.128 3.887-.001c.617 0 1.119.502 1.119 1.119s-.502 1.119-1.119 1.119h-7.142v.992h7.142c.684 0 1.288-.333 1.674-.839l6.984-3.373c.343-.167.725-.146 1.049.057s.508.537.508.918c0 .391-.212.753-.553.945zM16.612 12.159h-.992v.92h.992v-.92zM16.612 13.992h-.992v.92h.992v-.92zM16.612 15.826h-.992v.92h.992v-.92z" />
    </symbol>
    <symbol id="wedo5" viewBox="0 0 27 32">
      <path
        d="M-.102 31.759h26.785c.133-3.055-.086-8.122-1.964-10.535l-.068-.087-4.104-2.06c.089-.301.133-.576.151-.778.02-.243-.013-.471-.1-.678-.677-1.62-2.11-2.472-2.898-2.836.24-.484.395-1.003.47-1.534.446-.126.805-.479.923-.951l.479-1.946c.085-.343.032-.699-.151-1.002-.079-.131-.18-.24-.294-.334 1.351-3.068-.911-5.96-1.035-6.113C15.642.256 12.547.752 12.384.781c-4.466.935-6.19 4.358-5.217 8.372-.288.319-.409.764-.302 1.2l.481 1.948c.117.468.473.82.916.948.137.972.548 1.851 1.152 2.559v1.543c-6.409 3.282-2.348 1.188-7.484 3.786-.01.048-2.41 2.599-2.053 10.159l.022.462zm25.854-.97h-4.408v-1.852l2.916-6.675c1.461 2.424 1.515 7.053 1.493 8.526zm-6.017-12.573c-.17 1.954-1.242 1.364-1.903 2.869-.52-.572-.677-1.258-.537-1.993.253-1.349-.57-1.749-.367-3.166l.031-.032v-.005c.017-.02.18-.213.227-.274 1.744.76 2.584 2.174 2.55 2.6zm-9.356-1.536c.81.562 1.787.893 2.838.893.99 0 1.93-.288 2.736-.819.112 1.114.547 1.337.393 2.157-.029.152-.045.302-.054.45l-3.002 3.384-3.838-4.327.926-.484V16.68zm-1.207-4.14V7.368c.467-.864 1.104-1.491 1.896-1.866 2.12 1.2 4.56 2.99 6.197 4.791-.002 2.294.006 2.301-.009 2.489l-.001.012c-.128 2.083-1.841 3.811-4.038 3.811-2.136 0-3.909-1.677-4.037-3.831-.007-.077-.008-.155-.008-.233zm-.598 6.346 4.716 5.317 3.166-3.569c.072.208.174.405.29.595l-3.456 4.322-5.154-6.446.438-.22zm9.656-7.127v-1.498c.042-.049.402-.461.36-.413.02.758.102-.137-.36 1.911zM12.562 1.734c.192.012 2.765-.391 4.799 1.804.08.1 1.736 2.234 1.071 4.567-.228-1.038-.624-2.369-1.252-3.004l-.685.683c.619.627 1.026 2.537 1.181 3.527-2.84-2.972-6.504-4.853-6.555-4.885-.184.114-1.734.409-2.86 2.598l-.054.105v1.607c-.048.001-.19.002-.142.002-.716-3.454.655-6.198 4.497-7.004zM7.963 9.736l.244.987v1.038l-.405-1.639c-.059-.244.122-.337.161-.386zm-.71 9.814 6.038 7.551 4.085-5.109c.444.398.658.454 1.6.939l-.318-1.078c-.081-.274.239-.713.431-.914.43-.233.789-.566 1.058-.977l3.333 1.674-3.101 7.1v2.055H6.203v-2.055L3.1 21.637l4.153-2.085zm-4.932 2.715 2.916 6.673v1.852H.829c-.022-1.473.033-6.099 1.492-8.524z" />
    </symbol>
    <symbol id="wedo6" viewBox="0 0 39 32">
      <path
        d="M3.047 29.453h12.23c.62 1.285 1.917 2.116 3.38 2.116h.772c1.465 0 2.761-.83 3.381-2.116h12.237c1.26 0 2.286-1.025 2.286-2.286V5.262c0-1.26-1.025-2.286-2.286-2.286h-1.234V1.955c0-.84-.684-1.524-1.524-1.524H5.798c-.84 0-1.524.683-1.524 1.524v1.021H3.047c-1.26 0-2.286 1.025-2.286 2.286v21.905c0 1.26 1.025 2.286 2.286 2.286zm29.241-4.701H19.81V7.047c2.884.377 5.121 2.845 5.121 5.831v.687l-.181-.04c-.196-.042-.403-.007-.574.102s-.291.281-.334.478l-1.213 5.519c-.09.41.17.816.58.907l2.621.578c.135.029.273.043.411.043.922 0 1.707-.631 1.908-1.535l.702-3.192c.231-1.048-.433-2.09-1.484-2.324l-.912-.201v-1.023c0-3.827-2.917-6.986-6.644-7.37V1.956h12.48l-.002 22.796zm-7.122-9.575 1.871.412c.234.052.376.275.325.508l-.702 3.191c-.051.231-.306.374-.507.331l-1.873-.413.886-4.03zM5.798 1.956h12.487v3.55c-3.731.381-6.652 3.541-6.652 7.371v1.022l-.914.202c-.509.113-.943.416-1.222.854-.281.439-.373.961-.26 1.468l.7 3.188c.19.892.993 1.54 1.909 1.54.138 0 .275-.015.416-.045l2.61-.577c.41-.091.67-.496.58-.907l-1.213-5.519c-.043-.198-.164-.37-.334-.478s-.378-.144-.574-.102l-.174.038v-.686c0-2.988 2.24-5.458 5.128-5.832v17.706H5.798V1.953zm7.118 13.221.887 4.029-1.863.411c-.229.052-.463-.1-.512-.328l-.702-3.196c-.025-.111-.005-.224.055-.319.061-.096.157-.162.268-.187l1.867-.412zM2.286 5.262c0-.42.342-.762.762-.762h1.227v20.252c0 .84.684 1.524 1.524 1.524H32.29c.84 0 1.524-.683 1.524-1.524V4.5h1.234c.42 0 .762.342.762.762v21.905c0 .42-.342.762-.762.762H22.294c-.335 0-.63.218-.728.538-.289.943-1.147 1.577-2.135 1.577h-.772c-.984 0-1.841-.631-2.138-1.586-.101-.315-.394-.529-.725-.529H3.049c-.42 0-.762-.342-.762-.762V5.262z" />
    </symbol>
    <symbol id="icon-tick" viewBox="0 0 41 32">
      <path fill="#ff6b09" style="fill: var(--color1, #ff6b09)"
        d="M34.457 1.514c-1.484 0.664-2.907 1.475-4.265 2.379-2.731 1.797-5.228 3.936-7.57 6.218-2.341 2.287-4.52 4.735-6.581 7.28-0.515 0.636-2.823 3.47-2.823 3.47l-9.596-14.38-3.623 10.042 12.977 15.477c1.26-2.551 2.473-5.070 3.662-7.258 0.296-0.556 0.605-1.080 0.901-1.612 0 0 1.523-2.677 1.923-3.352 1.602-2.697 3.333-5.325 5.239-7.821 1.908-2.491 3.983-4.87 6.335-6.961 1.17-1.052 2.416-2.025 3.751-2.872 1.332-0.848 2.747-1.591 4.261-2.125-1.575 0.31-3.111 0.848-4.592 1.514z">
      </path>
    </symbol>
    <symbol id="icon-footer-tel" viewBox="0 0 32 32">
      <path fill="#ff6b09" style="fill: var(--color1, #ff6b09)" d="M4.657 0.002c-0.515 0.024-1.021 0.243-1.392 0.651l-2.595 2.852c0.004-0.008-0.010-0.007-0.084 0.097-0.039 0.054-0.070 0.113-0.090 0.176-1.056 3.364-0.348 7.064 1.376 10.584s4.475 6.888 7.633 9.651c3.158 2.764 6.721 4.926 10.119 5.999s6.692 1.058 9.133-0.713c0.026-0.020 0.051-0.041 0.075-0.065 0.064-0.064 0.066-0.072 0.056-0.062l0.010-0.012 2.582-2.84c0.742-0.816 0.682-2.098-0.134-2.84l-6.126-5.571c-0.816-0.742-2.098-0.683-2.84 0.133l-2.772 3.048c-2.25-0.652-4.173-1.756-6.023-3.439s-3.132-3.494-3.993-5.673l2.771-3.048c0.742-0.816 0.683-2.098-0.133-2.84l-6.126-5.571c-0.408-0.371-0.933-0.542-1.448-0.518l-0.001 0zM4.715 1.253c0.19-0.008 0.383 0.057 0.541 0.201l6.126 5.571c0.316 0.287 0.337 0.745 0.050 1.061l-3.063 3.366c-0.077 0.085-0.129 0.19-0.151 0.302s-0.013 0.229 0.027 0.337c0.93 2.537 2.429 4.618 4.493 6.495s4.275 3.174 6.889 3.859c0.111 0.029 0.228 0.027 0.339-0.005s0.21-0.095 0.287-0.18l3.064-3.367c0.287-0.315 0.744-0.336 1.060-0.049l6.127 5.571c0.316 0.287 0.336 0.744 0.049 1.060l-2.561 2.815c-2.003 1.438-4.826 1.519-7.986 0.521-3.173-1.002-6.617-3.076-9.666-5.744s-5.702-5.926-7.332-9.254c-1.614-3.294-2.199-6.624-1.312-9.559l2.502-2.75c0.143-0.158 0.33-0.242 0.52-0.251l0 0z"></path>
    </symbol>
    <symbol id="icon-footer-tel-tablet" viewBox="0 0 32 32">
      <path fill="#ff6b09" style="fill: var(--color1, #ff6b09)" d="M4.657 0.002c-0.515 0.024-1.021 0.243-1.392 0.651l-2.595 2.852c0.004-0.008-0.010-0.007-0.084 0.097-0.039 0.054-0.070 0.113-0.090 0.176-1.056 3.364-0.348 7.064 1.376 10.584s4.475 6.887 7.633 9.651c3.158 2.764 6.721 4.926 10.119 5.999s6.692 1.058 9.133-0.713c0.027-0.020 0.051-0.041 0.075-0.065 0.064-0.064 0.066-0.072 0.056-0.062l0.010-0.012 2.582-2.84c0.742-0.816 0.682-2.098-0.134-2.84l-6.126-5.571c-0.816-0.742-2.098-0.683-2.84 0.133l-2.772 3.048c-2.25-0.651-4.173-1.756-6.023-3.439s-3.132-3.494-3.993-5.673l2.771-3.048c0.742-0.816 0.683-2.098-0.133-2.84l-6.126-5.571c-0.408-0.371-0.933-0.542-1.448-0.518l-0.001 0zM4.715 1.253c0.19-0.008 0.383 0.057 0.541 0.201l6.126 5.571c0.316 0.287 0.337 0.745 0.050 1.061l-3.063 3.366c-0.077 0.085-0.129 0.19-0.151 0.302s-0.013 0.229 0.027 0.337c0.93 2.537 2.429 4.618 4.493 6.495s4.275 3.174 6.889 3.859c0.111 0.029 0.228 0.027 0.339-0.005s0.21-0.095 0.287-0.18l3.064-3.367c0.287-0.315 0.744-0.336 1.060-0.049l6.127 5.571c0.316 0.287 0.336 0.744 0.049 1.060l-2.561 2.815c-2.003 1.438-4.825 1.519-7.986 0.521-3.173-1.002-6.617-3.076-9.666-5.745s-5.702-5.926-7.332-9.254c-1.614-3.294-2.199-6.624-1.312-9.559l2.502-2.75c0.143-0.158 0.33-0.242 0.52-0.251l0 0z"></path>
    </symbol>
    <symbol id="icon-footer-tel-desktop" viewBox="0 0 33 32">
      <path fill="#ff6b09" style="fill: var(--color1, #ff6b09)" d="M4.817 0.003c-0.533 0.025-1.056 0.252-1.44 0.674l-2.684 2.95c0.004-0.009-0.010-0.007-0.087 0.1-0.041 0.055-0.072 0.117-0.093 0.182-1.092 3.48-0.36 7.308 1.424 10.949s4.63 7.125 7.897 9.984c3.267 2.859 6.953 5.096 10.468 6.205s6.922 1.095 9.448-0.737c0.027-0.020 0.053-0.043 0.077-0.067 0.066-0.066 0.068-0.075 0.058-0.065l0.010-0.013 2.671-2.938c0.768-0.844 0.706-2.17-0.138-2.938l-6.337-5.763c-0.844-0.768-2.17-0.706-2.938 0.137l-2.867 3.153c-2.327-0.674-4.317-1.816-6.231-3.557s-3.24-3.615-4.131-5.869l2.866-3.153c0.768-0.844 0.706-2.17-0.137-2.938l-6.337-5.763c-0.422-0.384-0.965-0.561-1.498-0.535l-0.001 0zM4.878 1.296c0.196-0.009 0.396 0.059 0.559 0.208l6.337 5.763c0.326 0.297 0.349 0.771 0.052 1.097l-3.169 3.482c-0.080 0.088-0.134 0.196-0.156 0.313s-0.013 0.237 0.027 0.348c0.962 2.624 2.513 4.777 4.648 6.719s4.423 3.283 7.126 3.992c0.115 0.030 0.236 0.028 0.35-0.006s0.217-0.098 0.297-0.186l3.169-3.483c0.297-0.326 0.77-0.348 1.096-0.051l6.338 5.763c0.326 0.297 0.348 0.77 0.051 1.096l-2.649 2.912c-2.072 1.488-4.992 1.571-8.262 0.539-3.282-1.036-6.846-3.182-9.999-5.942s-5.898-6.131-7.585-9.573c-1.67-3.407-2.275-6.852-1.357-9.888l2.588-2.844c0.148-0.163 0.342-0.251 0.538-0.26l0 0z"></path>
    </symbol>
    <symbol id="facebook" viewBox="0 0 32 32">
      <path d="M31.5 16c0-8.563-6.938-15.5-15.5-15.5s-15.5 6.938-15.5 15.5c0 7.736 5.668 14.149 13.078 15.313v-10.832h-3.938v-4.481h3.938v-3.415c0-3.884 2.313-6.030 5.854-6.030 1.696 0 3.47 0.303 3.47 0.303v3.813h-1.955c-1.925 0-2.526 1.195-2.526 2.421v2.909h4.299l-0.688 4.481h-3.611v10.832c7.41-1.164 13.078-7.576 13.078-15.313z"></path>
    </symbol>
  </defs>
</svg>